<?xml version="1.0" encoding="utf-8"?>
<!-- Generator: Adobe Illustrator 16.0.3, SVG Export Plug-In . SVG Version: 6.00 Build 0)  -->
<!DOCTYPE svg PUBLIC "-//W3C//DTD SVG 1.1//EN" "http://www.w3.org/Graphics/SVG/1.1/DTD/svg11.dtd">
<svg version="1.1" id="Layer_1" xmlns="http://www.w3.org/2000/svg" xmlns:xlink="http://www.w3.org/1999/xlink" x="0px" y="0px"
	 width="500px" height="500px" viewBox="0 0 500 500" enable-background="new 0 0 500 500" xml:space="preserve">
<path id="happy3" fill="none" stroke="#000000" stroke-width="20" stroke-linecap="round" stroke-miterlimit="10" d="M37.844,0
	c0,118.924,97.875,205.549,209.953,205.549c112.077,0,214.359-88.093,214.359-205.549"/>
<path id="happy2" fill="none" stroke="#000000" stroke-width="20" stroke-linecap="round" stroke-miterlimit="10" d="M37.844,0.487
	c31.32,85.158,136.541,132.341,209.953,132.341c73.408,0,176.183-47.671,214.359-132.828"/>
<path id="happy1" fill="none" stroke="#000000" stroke-width="20" stroke-linecap="round" stroke-miterlimit="10" d="M19.401,0
	C103.125,34.972,176.589,54.361,250,54.361S396.875,34.972,480.599,0"/>
<path id="neutral" fill="none" stroke="#000000" stroke-width="20" stroke-linecap="round" stroke-miterlimit="10" d="M36,0
	c0,0,129.015,0,214.657,0C336.302,0,464,0,464,0"/>
<path id="upset1" fill="none" stroke="#000000" stroke-width="20" stroke-linecap="round" stroke-miterlimit="10" d="M19.401,54.361
	C103.125,19.39,176.589,0,250,0s146.875,19.39,230.599,54.361"/>
<path id="upset2" fill="none" stroke="#000000" stroke-width="20" stroke-linecap="round" stroke-miterlimit="10" d="
	M37.844,124.312C69.164,39.153,174.385,0,247.797,0c73.408,0,176.183,39.645,214.359,124.799"/>
<path id="upset3" fill="none" stroke="#000000" stroke-width="20" stroke-linecap="round" stroke-miterlimit="10" d="
	M37.844,205.549C37.844,86.625,135.719,0,247.797,0c112.077,0,214.359,88.091,214.359,205.549"/>
</svg>
