<?xml version="1.0" encoding="UTF-8" standalone="yes"?>
<svg version="1.1" xmlns="http://www.w3.org/2000/svg" xmlns:xlink="http://www.w3.org/1999/xlink" x="0px" y="0px"
	 width="270px" height="1250px" viewBox="0 0 270 1250"
	 xml:space="preserve">

<!-- mouth shapes -->
	<path id="neutral" d="M136.002,633.95c19.599,0,93.788,0,106.856,0c4.6,0,16.533,0,16.533,0c6.37,0,11.532-5.165,11.532-11.533
		c0-6.369-5.162-11.532-11.532-11.532c0,0-4.617,0-11.522,0c-5.011,0-95.332,0-111.867,0c-16.536,0-109.176,0-111.868,0
		c-3.843,0-11.522,0-11.522,0c-6.369,0-11.532,5.163-11.532,11.532c0,6.368,5.163,11.533,11.532,11.533c0,0,11.523,0,13.829,0
		C29.132,633.95,116.404,633.95,136.002,633.95z"/>

</svg>
