<?xml version="1.0" encoding="UTF-8" standalone="yes"?>
<svg version="1.1" xmlns="http://www.w3.org/2000/svg" xmlns:xlink="http://www.w3.org/1999/xlink" x="0px" y="0px"
	 width="270px" height="1250px" viewBox="0 0 270 1250"
	 xml:space="preserve">

<!-- mouth shapes -->
	

    <path id="happy1" d="M135.462,548.375c-38.09,0-74.619-9.691-107.095-28.234c-8.191-4.677-16.125-9.917-23.758-15.706
        c-5.123-3.887-6.127-11.19-2.242-16.315c3.885-5.124,11.191-6.126,16.314-2.243c7.751,5.878,15.843,11.12,24.23,15.71
        c28.215,15.442,59.732,23.499,92.551,23.499s64.336-8.057,92.551-23.499c8.387-4.59,16.479-9.833,24.23-15.71
        c5.123-3.884,12.429-2.881,16.314,2.243c3.885,5.125,2.881,12.428-2.242,16.315c-7.634,5.789-15.567,11.029-23.758,15.706
        C210.081,538.684,173.552,548.375,135.462,548.375z"/>
</svg>
