<?xml version="1.0" encoding="UTF-8" standalone="yes"?>
<svg version="1.1" xmlns="http://www.w3.org/2000/svg" xmlns:xlink="http://www.w3.org/1999/xlink" x="0px" y="0px"
	 width="270px" height="1250px" viewBox="0 0 270 1250"
	 xml:space="preserve">

<!-- mouth shapes -->
	

    <path id="upset1" d="M135.462,696.348c-38.09,0-74.619,9.693-107.095,28.234c-8.191,4.677-16.125,9.918-23.758,15.707
        c-5.123,3.888-6.127,11.19-2.242,16.315c3.885,5.123,11.191,6.127,16.314,2.241c7.751-5.878,15.843-11.119,24.23-15.708
        c28.215-15.442,59.732-23.501,92.551-23.501s64.336,8.059,92.551,23.501c8.387,4.589,16.479,9.83,24.23,15.708
        c5.123,3.886,12.429,2.882,16.314-2.241c3.885-5.125,2.881-12.428-2.242-16.315c-7.634-5.789-15.567-11.03-23.758-15.707
        C210.081,706.042,173.552,696.348,135.462,696.348z"/>
</svg>
