<?xml version="1.0" encoding="UTF-8" standalone="yes"?>
<svg version="1.1" xmlns="http://www.w3.org/2000/svg" xmlns:xlink="http://www.w3.org/1999/xlink" x="0px" y="0px"
	 width="270px" height="1250px" viewBox="0 0 270 1250"
	 xml:space="preserve">

<!-- mouth shapes -->

    <path id="upset3" d="M135.462,1064.178C60.77,1064.178,0,1124.948,0,1199.64c0,12.416,1.682,24.722,4.998,36.574
        c1.733,6.192,8.16,9.809,14.351,8.075c6.193-1.733,9.809-8.158,8.078-14.352c-2.747-9.809-4.138-20.003-4.138-30.298
        c0-61.854,50.32-112.174,112.173-112.174s112.174,50.32,112.174,112.174c0,10.295-1.392,20.489-4.139,30.298
        c-1.73,6.193,1.885,12.618,8.078,14.352c6.19,1.733,12.617-1.88,14.351-8.075c3.316-11.853,4.998-24.158,4.998-36.574
        C270.924,1124.948,210.157,1064.178,135.462,1064.178z"/>
</svg>
