<?xml version="1.0" encoding="UTF-8" standalone="yes"?>
<svg version="1.1" xmlns="http://www.w3.org/2000/svg" xmlns:xlink="http://www.w3.org/1999/xlink" x="0px" y="0px"
	 width="270px" height="1250px" viewBox="0 0 270 1250"
	 xml:space="preserve">

<!-- mouth shapes -->
	

    

    <path id="upset2" d="M135.462,881.271c-56.393,0-102.464,36.207-121.278,81.847c-3.614,8.763-6.85,17.419-9.382,26.142
        c-1.479,5.106,1.018,10.498,6.056,12.194c5.04,1.695,10.539-1.002,12.197-6.054c2.563-7.822,6.472-15.246,10.045-23.005
        c17.207-37.37,55.025-67.836,102.362-67.836s85.156,30.466,102.362,67.836c3.573,7.759,7.482,15.183,10.045,23.005
        c1.658,5.052,7.156,7.749,12.197,6.054c5.038-1.696,7.534-7.088,6.056-12.194c-2.532-8.723-5.768-17.379-9.382-26.142
        C237.926,917.478,191.854,881.271,135.462,881.271z"/>
</svg>
