<?xml version="1.0" encoding="UTF-8" standalone="yes"?>
<svg version="1.1" xmlns="http://www.w3.org/2000/svg" xmlns:xlink="http://www.w3.org/1999/xlink" x="0px" y="0px"
	 width="270px" height="1250px" viewBox="0 0 270 1250"
	 xml:space="preserve">

<!-- mouth shapes -->
	

    <path id="happy3" d="M135.462,180.546C60.77,180.546,0,119.778,0,45.084C0,32.668,1.682,20.362,4.998,8.51
        c1.733-6.193,8.16-9.81,14.351-8.076c6.193,1.733,9.809,8.159,8.078,14.352c-2.747,9.809-4.138,20.003-4.138,30.299
        c0,61.852,50.32,112.173,112.173,112.173s112.174-50.321,112.174-112.173c0-10.296-1.392-20.49-4.139-30.299
        c-1.73-6.192,1.885-12.618,8.078-14.352c6.19-1.733,12.617,1.882,14.351,8.076c3.316,11.852,4.998,24.158,4.998,36.574
        C270.924,119.778,210.157,180.546,135.462,180.546z"/>
</svg>
